<?xml version="1.0" encoding="UTF-8" standalone="no"?>
<!DOCTYPE svg PUBLIC "-//W3C//DTD SVG 1.1//EN"
 "http://www.w3.org/Graphics/SVG/1.1/DTD/svg11.dtd">
<!-- Generated by graphviz version 2.40.1 (20161225.0304)
 -->
<!-- Title: snakemake_dag Pages: 1 -->
<svg width="138pt" height="481pt"
 viewBox="0.00 0.00 138.00 481.00" xmlns="http://www.w3.org/2000/svg" xmlns:xlink="http://www.w3.org/1999/xlink">
<g id="graph0" class="graph" transform="scale(1 1) rotate(0) translate(4 477)">
<title>snakemake_dag</title>
<polygon fill="#ffffff" stroke="transparent" points="-4,4 -4,-477 134,-477 134,4 -4,4"/>
<!-- 0 -->
<g id="node1" class="node">
<title>0</title>
<path fill="none" stroke="#c6d856" stroke-width="2" d="M83,-36C83,-36 47,-36 47,-36 41,-36 35,-30 35,-24 35,-24 35,-12 35,-12 35,-6 41,0 47,0 47,0 83,0 83,0 89,0 95,-6 95,-12 95,-12 95,-24 95,-24 95,-30 89,-36 83,-36"/>
<text text-anchor="middle" x="65" y="-15.5" font-family="sans" font-size="10.00" fill="#000000">plot_tree</text>
</g>
<!-- 1 -->
<g id="node2" class="node">
<title>1</title>
<path fill="none" stroke="#56a2d8" stroke-width="2" d="M90.5,-108C90.5,-108 39.5,-108 39.5,-108 33.5,-108 27.5,-102 27.5,-96 27.5,-96 27.5,-84 27.5,-84 27.5,-78 33.5,-72 39.5,-72 39.5,-72 90.5,-72 90.5,-72 96.5,-72 102.5,-78 102.5,-84 102.5,-84 102.5,-96 102.5,-96 102.5,-102 96.5,-108 90.5,-108"/>
<text text-anchor="middle" x="65" y="-87.5" font-family="sans" font-size="10.00" fill="#000000">tree_builder</text>
</g>
<!-- 1&#45;&gt;0 -->
<g id="edge1" class="edge">
<title>1&#45;&gt;0</title>
<path fill="none" stroke="#c0c0c0" stroke-width="2" d="M65,-71.8314C65,-64.131 65,-54.9743 65,-46.4166"/>
<polygon fill="#c0c0c0" stroke="#c0c0c0" stroke-width="2" points="68.5001,-46.4132 65,-36.4133 61.5001,-46.4133 68.5001,-46.4132"/>
</g>
<!-- 2 -->
<g id="node3" class="node">
<title>2</title>
<path fill="none" stroke="#d85656" stroke-width="2" d="M103.5,-180C103.5,-180 26.5,-180 26.5,-180 20.5,-180 14.5,-174 14.5,-168 14.5,-168 14.5,-156 14.5,-156 14.5,-150 20.5,-144 26.5,-144 26.5,-144 103.5,-144 103.5,-144 109.5,-144 115.5,-150 115.5,-156 115.5,-156 115.5,-168 115.5,-168 115.5,-174 109.5,-180 103.5,-180"/>
<text text-anchor="middle" x="65" y="-159.5" font-family="sans" font-size="10.00" fill="#000000">global_alignment</text>
</g>
<!-- 2&#45;&gt;1 -->
<g id="edge2" class="edge">
<title>2&#45;&gt;1</title>
<path fill="none" stroke="#c0c0c0" stroke-width="2" d="M65,-143.8314C65,-136.131 65,-126.9743 65,-118.4166"/>
<polygon fill="#c0c0c0" stroke="#c0c0c0" stroke-width="2" points="68.5001,-118.4132 65,-108.4133 61.5001,-118.4133 68.5001,-118.4132"/>
</g>
<!-- 3 -->
<g id="node4" class="node">
<title>3</title>
<path fill="none" stroke="#56d8c9" stroke-width="2" d="M80,-252C80,-252 50,-252 50,-252 44,-252 38,-246 38,-240 38,-240 38,-228 38,-228 38,-222 44,-216 50,-216 50,-216 80,-216 80,-216 86,-216 92,-222 92,-228 92,-228 92,-240 92,-240 92,-246 86,-252 80,-252"/>
<text text-anchor="middle" x="65" y="-231.5" font-family="sans" font-size="10.00" fill="#000000">request</text>
</g>
<!-- 3&#45;&gt;2 -->
<g id="edge3" class="edge">
<title>3&#45;&gt;2</title>
<path fill="none" stroke="#c0c0c0" stroke-width="2" d="M65,-215.8314C65,-208.131 65,-198.9743 65,-190.4166"/>
<polygon fill="#c0c0c0" stroke="#c0c0c0" stroke-width="2" points="68.5001,-190.4132 65,-180.4133 61.5001,-190.4133 68.5001,-190.4132"/>
</g>
<!-- 4 -->
<g id="node5" class="node">
<title>4</title>
<path fill="none" stroke="#78d856" stroke-width="2" d="M80,-324C80,-324 50,-324 50,-324 44,-324 38,-318 38,-312 38,-312 38,-300 38,-300 38,-294 44,-288 50,-288 50,-288 80,-288 80,-288 86,-288 92,-294 92,-300 92,-300 92,-312 92,-312 92,-318 86,-324 80,-324"/>
<text text-anchor="middle" x="65" y="-303.5" font-family="sans" font-size="10.00" fill="#000000">fusion</text>
</g>
<!-- 4&#45;&gt;3 -->
<g id="edge4" class="edge">
<title>4&#45;&gt;3</title>
<path fill="none" stroke="#c0c0c0" stroke-width="2" d="M65,-287.8314C65,-280.131 65,-270.9743 65,-262.4166"/>
<polygon fill="#c0c0c0" stroke="#c0c0c0" stroke-width="2" points="68.5001,-262.4132 65,-252.4133 61.5001,-262.4133 68.5001,-262.4132"/>
</g>
<!-- 5 -->
<g id="node6" class="node">
<title>5</title>
<path fill="none" stroke="#56d87b" stroke-width="2" d="M87.5,-396C87.5,-396 42.5,-396 42.5,-396 36.5,-396 30.5,-390 30.5,-384 30.5,-384 30.5,-372 30.5,-372 30.5,-366 36.5,-360 42.5,-360 42.5,-360 87.5,-360 87.5,-360 93.5,-360 99.5,-366 99.5,-372 99.5,-372 99.5,-384 99.5,-384 99.5,-390 93.5,-396 87.5,-396"/>
<text text-anchor="middle" x="65" y="-375.5" font-family="sans" font-size="10.00" fill="#000000">cat_indexs</text>
</g>
<!-- 5&#45;&gt;4 -->
<g id="edge5" class="edge">
<title>5&#45;&gt;4</title>
<path fill="none" stroke="#c0c0c0" stroke-width="2" d="M65,-359.8314C65,-352.131 65,-342.9743 65,-334.4166"/>
<polygon fill="#c0c0c0" stroke="#c0c0c0" stroke-width="2" points="68.5001,-334.4132 65,-324.4133 61.5001,-334.4133 68.5001,-334.4132"/>
</g>
<!-- 6 -->
<g id="node7" class="node">
<title>6</title>
<path fill="none" stroke="#d8a456" stroke-width="2" d="M118,-473C118,-473 12,-473 12,-473 6,-473 0,-467 0,-461 0,-461 0,-444 0,-444 0,-438 6,-432 12,-432 12,-432 118,-432 118,-432 124,-432 130,-438 130,-444 130,-444 130,-461 130,-461 130,-467 124,-473 118,-473"/>
<text text-anchor="middle" x="65" y="-461" font-family="sans" font-size="10.00" fill="#000000">articles_indexs</text>
<text text-anchor="middle" x="65" y="-450" font-family="sans" font-size="10.00" fill="#000000">article: fphys&#45;07&#45;00481</text>
<text text-anchor="middle" x="65" y="-439" font-family="sans" font-size="10.00" fill="#000000">channel: CaL</text>
</g>
<!-- 6&#45;&gt;5 -->
<g id="edge6" class="edge">
<title>6&#45;&gt;5</title>
<path fill="none" stroke="#c0c0c0" stroke-width="2" d="M65,-431.7476C65,-423.8767 65,-414.7743 65,-406.3232"/>
<polygon fill="#c0c0c0" stroke="#c0c0c0" stroke-width="2" points="68.5001,-406.1086 65,-396.1087 61.5001,-406.1087 68.5001,-406.1086"/>
</g>
</g>
</svg>
